<?xml version="1.0" encoding="UTF-8" standalone="no"?>
<!-- This is a Stata 18.0 generated SVG file (http://www.stata.com) -->

<svg version="1.1" width="7.500in" height="4.500in" viewBox="0 0 5400 3240" xmlns="http://www.w3.org/2000/svg" xmlns:xlink="http://www.w3.org/1999/xlink">
	<desc>Stata Graph - Graph</desc>
	<rect x="0" y="0" width="5400" height="3240" style="fill:#FFFFFF;stroke:none"/>
	<rect x="0.00" y="0.00" width="5400.00" height="3240.00" style="fill:#FFFFFF"/>
	<rect x="3.24" y="3.24" width="5393.52" height="3233.52" style="fill:none;stroke:#FFFFFF;stroke-width:6.48"/>
	<rect x="557.04" y="293.96" width="3840.41" height="2472.69" style="fill:#FFFFFF"/>
	<rect x="560.28" y="297.20" width="3833.93" height="2466.21" style="fill:none;stroke:#FFFFFF;stroke-width:6.48"/>
	<line x1="557.04" y1="2112.75" x2="621.84" y2="2112.75" style="stroke:#F0F0F0;stroke-width:9.72"/>
	<line x1="654.24" y1="2112.75" x2="719.04" y2="2112.75" style="stroke:#F0F0F0;stroke-width:9.72"/>
	<line x1="751.44" y1="2112.75" x2="816.24" y2="2112.75" style="stroke:#F0F0F0;stroke-width:9.72"/>
	<line x1="848.64" y1="2112.75" x2="913.44" y2="2112.75" style="stroke:#F0F0F0;stroke-width:9.72"/>
	<line x1="945.84" y1="2112.75" x2="1010.64" y2="2112.75" style="stroke:#F0F0F0;stroke-width:9.72"/>
	<line x1="1043.04" y1="2112.75" x2="1107.84" y2="2112.75" style="stroke:#F0F0F0;stroke-width:9.72"/>
	<line x1="1140.24" y1="2112.75" x2="1205.04" y2="2112.75" style="stroke:#F0F0F0;stroke-width:9.72"/>
	<line x1="1237.44" y1="2112.75" x2="1302.24" y2="2112.75" style="stroke:#F0F0F0;stroke-width:9.72"/>
	<line x1="1334.64" y1="2112.75" x2="1399.44" y2="2112.75" style="stroke:#F0F0F0;stroke-width:9.72"/>
	<line x1="1431.84" y1="2112.75" x2="1496.64" y2="2112.75" style="stroke:#F0F0F0;stroke-width:9.72"/>
	<line x1="1529.04" y1="2112.75" x2="1593.84" y2="2112.75" style="stroke:#F0F0F0;stroke-width:9.72"/>
	<line x1="1626.24" y1="2112.75" x2="1691.04" y2="2112.75" style="stroke:#F0F0F0;stroke-width:9.72"/>
	<line x1="1723.44" y1="2112.75" x2="1788.24" y2="2112.75" style="stroke:#F0F0F0;stroke-width:9.72"/>
	<line x1="1820.64" y1="2112.75" x2="1885.44" y2="2112.75" style="stroke:#F0F0F0;stroke-width:9.72"/>
	<line x1="1917.84" y1="2112.75" x2="1982.64" y2="2112.75" style="stroke:#F0F0F0;stroke-width:9.72"/>
	<line x1="2015.04" y1="2112.75" x2="2079.84" y2="2112.75" style="stroke:#F0F0F0;stroke-width:9.72"/>
	<line x1="2112.24" y1="2112.75" x2="2177.04" y2="2112.75" style="stroke:#F0F0F0;stroke-width:9.72"/>
	<line x1="2209.44" y1="2112.75" x2="2274.24" y2="2112.75" style="stroke:#F0F0F0;stroke-width:9.72"/>
	<line x1="2306.64" y1="2112.75" x2="2371.44" y2="2112.75" style="stroke:#F0F0F0;stroke-width:9.72"/>
	<line x1="2403.84" y1="2112.75" x2="2468.64" y2="2112.75" style="stroke:#F0F0F0;stroke-width:9.72"/>
	<line x1="2501.04" y1="2112.75" x2="2565.84" y2="2112.75" style="stroke:#F0F0F0;stroke-width:9.72"/>
	<line x1="2598.24" y1="2112.75" x2="2663.04" y2="2112.75" style="stroke:#F0F0F0;stroke-width:9.72"/>
	<line x1="2695.44" y1="2112.75" x2="2760.24" y2="2112.75" style="stroke:#F0F0F0;stroke-width:9.72"/>
	<line x1="2792.64" y1="2112.75" x2="2857.44" y2="2112.75" style="stroke:#F0F0F0;stroke-width:9.72"/>
	<line x1="2889.84" y1="2112.75" x2="2954.64" y2="2112.75" style="stroke:#F0F0F0;stroke-width:9.72"/>
	<line x1="2987.04" y1="2112.75" x2="3051.84" y2="2112.75" style="stroke:#F0F0F0;stroke-width:9.72"/>
	<line x1="3084.24" y1="2112.75" x2="3149.04" y2="2112.75" style="stroke:#F0F0F0;stroke-width:9.72"/>
	<line x1="3181.44" y1="2112.75" x2="3246.24" y2="2112.75" style="stroke:#F0F0F0;stroke-width:9.72"/>
	<line x1="3278.64" y1="2112.75" x2="3343.44" y2="2112.75" style="stroke:#F0F0F0;stroke-width:9.72"/>
	<line x1="3375.84" y1="2112.75" x2="3440.64" y2="2112.75" style="stroke:#F0F0F0;stroke-width:9.72"/>
	<line x1="3473.04" y1="2112.75" x2="3537.84" y2="2112.75" style="stroke:#F0F0F0;stroke-width:9.72"/>
	<line x1="3570.24" y1="2112.75" x2="3635.04" y2="2112.75" style="stroke:#F0F0F0;stroke-width:9.72"/>
	<line x1="3667.44" y1="2112.75" x2="3732.24" y2="2112.75" style="stroke:#F0F0F0;stroke-width:9.72"/>
	<line x1="3764.64" y1="2112.75" x2="3829.44" y2="2112.75" style="stroke:#F0F0F0;stroke-width:9.72"/>
	<line x1="3861.84" y1="2112.75" x2="3926.64" y2="2112.75" style="stroke:#F0F0F0;stroke-width:9.72"/>
	<line x1="3959.04" y1="2112.75" x2="4023.84" y2="2112.75" style="stroke:#F0F0F0;stroke-width:9.72"/>
	<line x1="4056.24" y1="2112.75" x2="4121.04" y2="2112.75" style="stroke:#F0F0F0;stroke-width:9.72"/>
	<line x1="4153.44" y1="2112.75" x2="4218.24" y2="2112.75" style="stroke:#F0F0F0;stroke-width:9.72"/>
	<line x1="4250.64" y1="2112.75" x2="4315.44" y2="2112.75" style="stroke:#F0F0F0;stroke-width:9.72"/>
	<line x1="4347.84" y1="2112.75" x2="4397.46" y2="2112.75" style="stroke:#F0F0F0;stroke-width:9.72"/>
	<line x1="557.04" y1="1530.39" x2="621.84" y2="1530.39" style="stroke:#F0F0F0;stroke-width:9.72"/>
	<line x1="654.24" y1="1530.39" x2="719.04" y2="1530.39" style="stroke:#F0F0F0;stroke-width:9.72"/>
	<line x1="751.44" y1="1530.39" x2="816.24" y2="1530.39" style="stroke:#F0F0F0;stroke-width:9.72"/>
	<line x1="848.64" y1="1530.39" x2="913.44" y2="1530.39" style="stroke:#F0F0F0;stroke-width:9.72"/>
	<line x1="945.84" y1="1530.39" x2="1010.64" y2="1530.39" style="stroke:#F0F0F0;stroke-width:9.72"/>
	<line x1="1043.04" y1="1530.39" x2="1107.84" y2="1530.39" style="stroke:#F0F0F0;stroke-width:9.72"/>
	<line x1="1140.24" y1="1530.39" x2="1205.04" y2="1530.39" style="stroke:#F0F0F0;stroke-width:9.72"/>
	<line x1="1237.44" y1="1530.39" x2="1302.24" y2="1530.39" style="stroke:#F0F0F0;stroke-width:9.72"/>
	<line x1="1334.64" y1="1530.39" x2="1399.44" y2="1530.39" style="stroke:#F0F0F0;stroke-width:9.72"/>
	<line x1="1431.84" y1="1530.39" x2="1496.64" y2="1530.39" style="stroke:#F0F0F0;stroke-width:9.72"/>
	<line x1="1529.04" y1="1530.39" x2="1593.84" y2="1530.39" style="stroke:#F0F0F0;stroke-width:9.72"/>
	<line x1="1626.24" y1="1530.39" x2="1691.04" y2="1530.39" style="stroke:#F0F0F0;stroke-width:9.72"/>
	<line x1="1723.44" y1="1530.39" x2="1788.24" y2="1530.39" style="stroke:#F0F0F0;stroke-width:9.72"/>
	<line x1="1820.64" y1="1530.39" x2="1885.44" y2="1530.39" style="stroke:#F0F0F0;stroke-width:9.72"/>
	<line x1="1917.84" y1="1530.39" x2="1982.64" y2="1530.39" style="stroke:#F0F0F0;stroke-width:9.72"/>
	<line x1="2015.04" y1="1530.39" x2="2079.84" y2="1530.39" style="stroke:#F0F0F0;stroke-width:9.72"/>
	<line x1="2112.24" y1="1530.39" x2="2177.04" y2="1530.39" style="stroke:#F0F0F0;stroke-width:9.72"/>
	<line x1="2209.44" y1="1530.39" x2="2274.24" y2="1530.39" style="stroke:#F0F0F0;stroke-width:9.72"/>
	<line x1="2306.64" y1="1530.39" x2="2371.44" y2="1530.39" style="stroke:#F0F0F0;stroke-width:9.72"/>
	<line x1="2403.84" y1="1530.39" x2="2468.64" y2="1530.39" style="stroke:#F0F0F0;stroke-width:9.72"/>
	<line x1="2501.04" y1="1530.39" x2="2565.84" y2="1530.39" style="stroke:#F0F0F0;stroke-width:9.72"/>
	<line x1="2598.24" y1="1530.39" x2="2663.04" y2="1530.39" style="stroke:#F0F0F0;stroke-width:9.72"/>
	<line x1="2695.44" y1="1530.39" x2="2760.24" y2="1530.39" style="stroke:#F0F0F0;stroke-width:9.72"/>
	<line x1="2792.64" y1="1530.39" x2="2857.44" y2="1530.39" style="stroke:#F0F0F0;stroke-width:9.72"/>
	<line x1="2889.84" y1="1530.39" x2="2954.64" y2="1530.39" style="stroke:#F0F0F0;stroke-width:9.72"/>
	<line x1="2987.04" y1="1530.39" x2="3051.84" y2="1530.39" style="stroke:#F0F0F0;stroke-width:9.72"/>
	<line x1="3084.24" y1="1530.39" x2="3149.04" y2="1530.39" style="stroke:#F0F0F0;stroke-width:9.72"/>
	<line x1="3181.44" y1="1530.39" x2="3246.24" y2="1530.39" style="stroke:#F0F0F0;stroke-width:9.72"/>
	<line x1="3278.64" y1="1530.39" x2="3343.44" y2="1530.39" style="stroke:#F0F0F0;stroke-width:9.72"/>
	<line x1="3375.84" y1="1530.39" x2="3440.64" y2="1530.39" style="stroke:#F0F0F0;stroke-width:9.72"/>
	<line x1="3473.04" y1="1530.39" x2="3537.84" y2="1530.39" style="stroke:#F0F0F0;stroke-width:9.72"/>
	<line x1="3570.24" y1="1530.39" x2="3635.04" y2="1530.39" style="stroke:#F0F0F0;stroke-width:9.72"/>
	<line x1="3667.44" y1="1530.39" x2="3732.24" y2="1530.39" style="stroke:#F0F0F0;stroke-width:9.72"/>
	<line x1="3764.64" y1="1530.39" x2="3829.44" y2="1530.39" style="stroke:#F0F0F0;stroke-width:9.72"/>
	<line x1="3861.84" y1="1530.39" x2="3926.64" y2="1530.39" style="stroke:#F0F0F0;stroke-width:9.72"/>
	<line x1="3959.04" y1="1530.39" x2="4023.84" y2="1530.39" style="stroke:#F0F0F0;stroke-width:9.72"/>
	<line x1="4056.24" y1="1530.39" x2="4121.04" y2="1530.39" style="stroke:#F0F0F0;stroke-width:9.72"/>
	<line x1="4153.44" y1="1530.39" x2="4218.24" y2="1530.39" style="stroke:#F0F0F0;stroke-width:9.72"/>
	<line x1="4250.64" y1="1530.39" x2="4315.44" y2="1530.39" style="stroke:#F0F0F0;stroke-width:9.72"/>
	<line x1="4347.84" y1="1530.39" x2="4397.46" y2="1530.39" style="stroke:#F0F0F0;stroke-width:9.72"/>
	<line x1="557.04" y1="947.87" x2="621.84" y2="947.87" style="stroke:#F0F0F0;stroke-width:9.72"/>
	<line x1="654.24" y1="947.87" x2="719.04" y2="947.87" style="stroke:#F0F0F0;stroke-width:9.72"/>
	<line x1="751.44" y1="947.87" x2="816.24" y2="947.87" style="stroke:#F0F0F0;stroke-width:9.72"/>
	<line x1="848.64" y1="947.87" x2="913.44" y2="947.87" style="stroke:#F0F0F0;stroke-width:9.72"/>
	<line x1="945.84" y1="947.87" x2="1010.64" y2="947.87" style="stroke:#F0F0F0;stroke-width:9.72"/>
	<line x1="1043.04" y1="947.87" x2="1107.84" y2="947.87" style="stroke:#F0F0F0;stroke-width:9.72"/>
	<line x1="1140.24" y1="947.87" x2="1205.04" y2="947.87" style="stroke:#F0F0F0;stroke-width:9.72"/>
	<line x1="1237.44" y1="947.87" x2="1302.24" y2="947.87" style="stroke:#F0F0F0;stroke-width:9.72"/>
	<line x1="1334.64" y1="947.87" x2="1399.44" y2="947.87" style="stroke:#F0F0F0;stroke-width:9.72"/>
	<line x1="1431.84" y1="947.87" x2="1496.64" y2="947.87" style="stroke:#F0F0F0;stroke-width:9.72"/>
	<line x1="1529.04" y1="947.87" x2="1593.84" y2="947.87" style="stroke:#F0F0F0;stroke-width:9.72"/>
	<line x1="1626.24" y1="947.87" x2="1691.04" y2="947.87" style="stroke:#F0F0F0;stroke-width:9.72"/>
	<line x1="1723.44" y1="947.87" x2="1788.24" y2="947.87" style="stroke:#F0F0F0;stroke-width:9.72"/>
	<line x1="1820.64" y1="947.87" x2="1885.44" y2="947.87" style="stroke:#F0F0F0;stroke-width:9.72"/>
	<line x1="1917.84" y1="947.87" x2="1982.64" y2="947.87" style="stroke:#F0F0F0;stroke-width:9.72"/>
	<line x1="2015.04" y1="947.87" x2="2079.84" y2="947.87" style="stroke:#F0F0F0;stroke-width:9.72"/>
	<line x1="2112.24" y1="947.87" x2="2177.04" y2="947.87" style="stroke:#F0F0F0;stroke-width:9.72"/>
	<line x1="2209.44" y1="947.87" x2="2274.24" y2="947.87" style="stroke:#F0F0F0;stroke-width:9.72"/>
	<line x1="2306.64" y1="947.87" x2="2371.44" y2="947.87" style="stroke:#F0F0F0;stroke-width:9.72"/>
	<line x1="2403.84" y1="947.87" x2="2468.64" y2="947.87" style="stroke:#F0F0F0;stroke-width:9.72"/>
	<line x1="2501.04" y1="947.87" x2="2565.84" y2="947.87" style="stroke:#F0F0F0;stroke-width:9.72"/>
	<line x1="2598.24" y1="947.87" x2="2663.04" y2="947.87" style="stroke:#F0F0F0;stroke-width:9.72"/>
	<line x1="2695.44" y1="947.87" x2="2760.24" y2="947.87" style="stroke:#F0F0F0;stroke-width:9.72"/>
	<line x1="2792.64" y1="947.87" x2="2857.44" y2="947.87" style="stroke:#F0F0F0;stroke-width:9.72"/>
	<line x1="2889.84" y1="947.87" x2="2954.64" y2="947.87" style="stroke:#F0F0F0;stroke-width:9.72"/>
	<line x1="2987.04" y1="947.87" x2="3051.84" y2="947.87" style="stroke:#F0F0F0;stroke-width:9.72"/>
	<line x1="3084.24" y1="947.87" x2="3149.04" y2="947.87" style="stroke:#F0F0F0;stroke-width:9.72"/>
	<line x1="3181.44" y1="947.87" x2="3246.24" y2="947.87" style="stroke:#F0F0F0;stroke-width:9.72"/>
	<line x1="3278.64" y1="947.87" x2="3343.44" y2="947.87" style="stroke:#F0F0F0;stroke-width:9.72"/>
	<line x1="3375.84" y1="947.87" x2="3440.64" y2="947.87" style="stroke:#F0F0F0;stroke-width:9.72"/>
	<line x1="3473.04" y1="947.87" x2="3537.84" y2="947.87" style="stroke:#F0F0F0;stroke-width:9.72"/>
	<line x1="3570.24" y1="947.87" x2="3635.04" y2="947.87" style="stroke:#F0F0F0;stroke-width:9.72"/>
	<line x1="3667.44" y1="947.87" x2="3732.24" y2="947.87" style="stroke:#F0F0F0;stroke-width:9.72"/>
	<line x1="3764.64" y1="947.87" x2="3829.44" y2="947.87" style="stroke:#F0F0F0;stroke-width:9.72"/>
	<line x1="3861.84" y1="947.87" x2="3926.64" y2="947.87" style="stroke:#F0F0F0;stroke-width:9.72"/>
	<line x1="3959.04" y1="947.87" x2="4023.84" y2="947.87" style="stroke:#F0F0F0;stroke-width:9.72"/>
	<line x1="4056.24" y1="947.87" x2="4121.04" y2="947.87" style="stroke:#F0F0F0;stroke-width:9.72"/>
	<line x1="4153.44" y1="947.87" x2="4218.24" y2="947.87" style="stroke:#F0F0F0;stroke-width:9.72"/>
	<line x1="4250.64" y1="947.87" x2="4315.44" y2="947.87" style="stroke:#F0F0F0;stroke-width:9.72"/>
	<line x1="4347.84" y1="947.87" x2="4397.46" y2="947.87" style="stroke:#F0F0F0;stroke-width:9.72"/>
	<line x1="557.04" y1="365.34" x2="621.84" y2="365.34" style="stroke:#F0F0F0;stroke-width:9.72"/>
	<line x1="654.24" y1="365.34" x2="719.04" y2="365.34" style="stroke:#F0F0F0;stroke-width:9.72"/>
	<line x1="751.44" y1="365.34" x2="816.24" y2="365.34" style="stroke:#F0F0F0;stroke-width:9.72"/>
	<line x1="848.64" y1="365.34" x2="913.44" y2="365.34" style="stroke:#F0F0F0;stroke-width:9.72"/>
	<line x1="945.84" y1="365.34" x2="1010.64" y2="365.34" style="stroke:#F0F0F0;stroke-width:9.72"/>
	<line x1="1043.04" y1="365.34" x2="1107.84" y2="365.34" style="stroke:#F0F0F0;stroke-width:9.72"/>
	<line x1="1140.24" y1="365.34" x2="1205.04" y2="365.34" style="stroke:#F0F0F0;stroke-width:9.72"/>
	<line x1="1237.44" y1="365.34" x2="1302.24" y2="365.34" style="stroke:#F0F0F0;stroke-width:9.72"/>
	<line x1="1334.64" y1="365.34" x2="1399.44" y2="365.34" style="stroke:#F0F0F0;stroke-width:9.72"/>
	<line x1="1431.84" y1="365.34" x2="1496.64" y2="365.34" style="stroke:#F0F0F0;stroke-width:9.72"/>
	<line x1="1529.04" y1="365.34" x2="1593.84" y2="365.34" style="stroke:#F0F0F0;stroke-width:9.72"/>
	<line x1="1626.24" y1="365.34" x2="1691.04" y2="365.34" style="stroke:#F0F0F0;stroke-width:9.72"/>
	<line x1="1723.44" y1="365.34" x2="1788.24" y2="365.34" style="stroke:#F0F0F0;stroke-width:9.72"/>
	<line x1="1820.64" y1="365.34" x2="1885.44" y2="365.34" style="stroke:#F0F0F0;stroke-width:9.72"/>
	<line x1="1917.84" y1="365.34" x2="1982.64" y2="365.34" style="stroke:#F0F0F0;stroke-width:9.72"/>
	<line x1="2015.04" y1="365.34" x2="2079.84" y2="365.34" style="stroke:#F0F0F0;stroke-width:9.72"/>
	<line x1="2112.24" y1="365.34" x2="2177.04" y2="365.34" style="stroke:#F0F0F0;stroke-width:9.72"/>
	<line x1="2209.44" y1="365.34" x2="2274.24" y2="365.34" style="stroke:#F0F0F0;stroke-width:9.72"/>
	<line x1="2306.64" y1="365.34" x2="2371.44" y2="365.34" style="stroke:#F0F0F0;stroke-width:9.72"/>
	<line x1="2403.84" y1="365.34" x2="2468.64" y2="365.34" style="stroke:#F0F0F0;stroke-width:9.72"/>
	<line x1="2501.04" y1="365.34" x2="2565.84" y2="365.34" style="stroke:#F0F0F0;stroke-width:9.72"/>
	<line x1="2598.24" y1="365.34" x2="2663.04" y2="365.34" style="stroke:#F0F0F0;stroke-width:9.72"/>
	<line x1="2695.44" y1="365.34" x2="2760.24" y2="365.34" style="stroke:#F0F0F0;stroke-width:9.72"/>
	<line x1="2792.64" y1="365.34" x2="2857.44" y2="365.34" style="stroke:#F0F0F0;stroke-width:9.72"/>
	<line x1="2889.84" y1="365.34" x2="2954.64" y2="365.34" style="stroke:#F0F0F0;stroke-width:9.72"/>
	<line x1="2987.04" y1="365.34" x2="3051.84" y2="365.34" style="stroke:#F0F0F0;stroke-width:9.72"/>
	<line x1="3084.24" y1="365.34" x2="3149.04" y2="365.34" style="stroke:#F0F0F0;stroke-width:9.72"/>
	<line x1="3181.44" y1="365.34" x2="3246.24" y2="365.34" style="stroke:#F0F0F0;stroke-width:9.72"/>
	<line x1="3278.64" y1="365.34" x2="3343.44" y2="365.34" style="stroke:#F0F0F0;stroke-width:9.72"/>
	<line x1="3375.84" y1="365.34" x2="3440.64" y2="365.34" style="stroke:#F0F0F0;stroke-width:9.72"/>
	<line x1="3473.04" y1="365.34" x2="3537.84" y2="365.34" style="stroke:#F0F0F0;stroke-width:9.72"/>
	<line x1="3570.24" y1="365.34" x2="3635.04" y2="365.34" style="stroke:#F0F0F0;stroke-width:9.72"/>
	<line x1="3667.44" y1="365.34" x2="3732.24" y2="365.34" style="stroke:#F0F0F0;stroke-width:9.72"/>
	<line x1="3764.64" y1="365.34" x2="3829.44" y2="365.34" style="stroke:#F0F0F0;stroke-width:9.72"/>
	<line x1="3861.84" y1="365.34" x2="3926.64" y2="365.34" style="stroke:#F0F0F0;stroke-width:9.72"/>
	<line x1="3959.04" y1="365.34" x2="4023.84" y2="365.34" style="stroke:#F0F0F0;stroke-width:9.72"/>
	<line x1="4056.24" y1="365.34" x2="4121.04" y2="365.34" style="stroke:#F0F0F0;stroke-width:9.72"/>
	<line x1="4153.44" y1="365.34" x2="4218.24" y2="365.34" style="stroke:#F0F0F0;stroke-width:9.72"/>
	<line x1="4250.64" y1="365.34" x2="4315.44" y2="365.34" style="stroke:#F0F0F0;stroke-width:9.72"/>
	<line x1="4347.84" y1="365.34" x2="4397.46" y2="365.34" style="stroke:#F0F0F0;stroke-width:9.72"/>
	<line x1="628.26" y1="2766.66" x2="628.26" y2="2701.86" style="stroke:#F0F0F0;stroke-width:9.72"/>
	<line x1="628.26" y1="2669.46" x2="628.26" y2="2604.66" style="stroke:#F0F0F0;stroke-width:9.72"/>
	<line x1="628.26" y1="2572.26" x2="628.26" y2="2507.46" style="stroke:#F0F0F0;stroke-width:9.72"/>
	<line x1="628.26" y1="2475.06" x2="628.26" y2="2410.26" style="stroke:#F0F0F0;stroke-width:9.72"/>
	<line x1="628.26" y1="2377.86" x2="628.26" y2="2313.06" style="stroke:#F0F0F0;stroke-width:9.72"/>
	<line x1="628.26" y1="2280.66" x2="628.26" y2="2215.86" style="stroke:#F0F0F0;stroke-width:9.72"/>
	<line x1="628.26" y1="2183.46" x2="628.26" y2="2118.66" style="stroke:#F0F0F0;stroke-width:9.72"/>
	<line x1="628.26" y1="2086.26" x2="628.26" y2="2021.46" style="stroke:#F0F0F0;stroke-width:9.72"/>
	<line x1="628.26" y1="1989.06" x2="628.26" y2="1924.26" style="stroke:#F0F0F0;stroke-width:9.72"/>
	<line x1="628.26" y1="1891.86" x2="628.26" y2="1827.06" style="stroke:#F0F0F0;stroke-width:9.72"/>
	<line x1="628.26" y1="1794.66" x2="628.26" y2="1729.86" style="stroke:#F0F0F0;stroke-width:9.72"/>
	<line x1="628.26" y1="1697.46" x2="628.26" y2="1632.66" style="stroke:#F0F0F0;stroke-width:9.72"/>
	<line x1="628.26" y1="1600.26" x2="628.26" y2="1535.46" style="stroke:#F0F0F0;stroke-width:9.72"/>
	<line x1="628.26" y1="1503.06" x2="628.26" y2="1438.26" style="stroke:#F0F0F0;stroke-width:9.72"/>
	<line x1="628.26" y1="1405.86" x2="628.26" y2="1341.06" style="stroke:#F0F0F0;stroke-width:9.72"/>
	<line x1="628.26" y1="1308.66" x2="628.26" y2="1243.86" style="stroke:#F0F0F0;stroke-width:9.72"/>
	<line x1="628.26" y1="1211.46" x2="628.26" y2="1146.66" style="stroke:#F0F0F0;stroke-width:9.72"/>
	<line x1="628.26" y1="1114.26" x2="628.26" y2="1049.46" style="stroke:#F0F0F0;stroke-width:9.72"/>
	<line x1="628.26" y1="1017.06" x2="628.26" y2="952.26" style="stroke:#F0F0F0;stroke-width:9.72"/>
	<line x1="628.26" y1="919.86" x2="628.26" y2="855.06" style="stroke:#F0F0F0;stroke-width:9.72"/>
	<line x1="628.26" y1="822.66" x2="628.26" y2="757.86" style="stroke:#F0F0F0;stroke-width:9.72"/>
	<line x1="628.26" y1="725.46" x2="628.26" y2="660.66" style="stroke:#F0F0F0;stroke-width:9.72"/>
	<line x1="628.26" y1="628.26" x2="628.26" y2="563.46" style="stroke:#F0F0F0;stroke-width:9.72"/>
	<line x1="628.26" y1="531.06" x2="628.26" y2="466.26" style="stroke:#F0F0F0;stroke-width:9.72"/>
	<line x1="628.26" y1="433.86" x2="628.26" y2="369.06" style="stroke:#F0F0F0;stroke-width:9.72"/>
	<line x1="628.26" y1="336.66" x2="628.26" y2="293.96" style="stroke:#F0F0F0;stroke-width:9.72"/>
	<line x1="2477.25" y1="2766.66" x2="2477.25" y2="2701.86" style="stroke:#F0F0F0;stroke-width:9.72"/>
	<line x1="2477.25" y1="2669.46" x2="2477.25" y2="2604.66" style="stroke:#F0F0F0;stroke-width:9.72"/>
	<line x1="2477.25" y1="2572.26" x2="2477.25" y2="2507.46" style="stroke:#F0F0F0;stroke-width:9.72"/>
	<line x1="2477.25" y1="2475.06" x2="2477.25" y2="2410.26" style="stroke:#F0F0F0;stroke-width:9.72"/>
	<line x1="2477.25" y1="2377.86" x2="2477.25" y2="2313.06" style="stroke:#F0F0F0;stroke-width:9.72"/>
	<line x1="2477.25" y1="2280.66" x2="2477.25" y2="2215.86" style="stroke:#F0F0F0;stroke-width:9.72"/>
	<line x1="2477.25" y1="2183.46" x2="2477.25" y2="2118.66" style="stroke:#F0F0F0;stroke-width:9.72"/>
	<line x1="2477.25" y1="2086.26" x2="2477.25" y2="2021.46" style="stroke:#F0F0F0;stroke-width:9.72"/>
	<line x1="2477.25" y1="1989.06" x2="2477.25" y2="1924.26" style="stroke:#F0F0F0;stroke-width:9.72"/>
	<line x1="2477.25" y1="1891.86" x2="2477.25" y2="1827.06" style="stroke:#F0F0F0;stroke-width:9.72"/>
	<line x1="2477.25" y1="1794.66" x2="2477.25" y2="1729.86" style="stroke:#F0F0F0;stroke-width:9.72"/>
	<line x1="2477.25" y1="1697.46" x2="2477.25" y2="1632.66" style="stroke:#F0F0F0;stroke-width:9.72"/>
	<line x1="2477.25" y1="1600.26" x2="2477.25" y2="1535.46" style="stroke:#F0F0F0;stroke-width:9.72"/>
	<line x1="2477.25" y1="1503.06" x2="2477.25" y2="1438.26" style="stroke:#F0F0F0;stroke-width:9.72"/>
	<line x1="2477.25" y1="1405.86" x2="2477.25" y2="1341.06" style="stroke:#F0F0F0;stroke-width:9.72"/>
	<line x1="2477.25" y1="1308.66" x2="2477.25" y2="1243.86" style="stroke:#F0F0F0;stroke-width:9.72"/>
	<line x1="2477.25" y1="1211.46" x2="2477.25" y2="1146.66" style="stroke:#F0F0F0;stroke-width:9.72"/>
	<line x1="2477.25" y1="1114.26" x2="2477.25" y2="1049.46" style="stroke:#F0F0F0;stroke-width:9.72"/>
	<line x1="2477.25" y1="1017.06" x2="2477.25" y2="952.26" style="stroke:#F0F0F0;stroke-width:9.72"/>
	<line x1="2477.25" y1="919.86" x2="2477.25" y2="855.06" style="stroke:#F0F0F0;stroke-width:9.72"/>
	<line x1="2477.25" y1="822.66" x2="2477.25" y2="757.86" style="stroke:#F0F0F0;stroke-width:9.72"/>
	<line x1="2477.25" y1="725.46" x2="2477.25" y2="660.66" style="stroke:#F0F0F0;stroke-width:9.72"/>
	<line x1="2477.25" y1="628.26" x2="2477.25" y2="563.46" style="stroke:#F0F0F0;stroke-width:9.72"/>
	<line x1="2477.25" y1="531.06" x2="2477.25" y2="466.26" style="stroke:#F0F0F0;stroke-width:9.72"/>
	<line x1="2477.25" y1="433.86" x2="2477.25" y2="369.06" style="stroke:#F0F0F0;stroke-width:9.72"/>
	<line x1="2477.25" y1="336.66" x2="2477.25" y2="293.96" style="stroke:#F0F0F0;stroke-width:9.72"/>
	<line x1="4326.24" y1="2766.66" x2="4326.24" y2="2701.86" style="stroke:#F0F0F0;stroke-width:9.72"/>
	<line x1="4326.24" y1="2669.46" x2="4326.24" y2="2604.66" style="stroke:#F0F0F0;stroke-width:9.72"/>
	<line x1="4326.24" y1="2572.26" x2="4326.24" y2="2507.46" style="stroke:#F0F0F0;stroke-width:9.72"/>
	<line x1="4326.24" y1="2475.06" x2="4326.24" y2="2410.26" style="stroke:#F0F0F0;stroke-width:9.72"/>
	<line x1="4326.24" y1="2377.86" x2="4326.24" y2="2313.06" style="stroke:#F0F0F0;stroke-width:9.72"/>
	<line x1="4326.24" y1="2280.66" x2="4326.24" y2="2215.86" style="stroke:#F0F0F0;stroke-width:9.72"/>
	<line x1="4326.24" y1="2183.46" x2="4326.24" y2="2118.66" style="stroke:#F0F0F0;stroke-width:9.72"/>
	<line x1="4326.24" y1="2086.26" x2="4326.24" y2="2021.46" style="stroke:#F0F0F0;stroke-width:9.72"/>
	<line x1="4326.24" y1="1989.06" x2="4326.24" y2="1924.26" style="stroke:#F0F0F0;stroke-width:9.72"/>
	<line x1="4326.24" y1="1891.86" x2="4326.24" y2="1827.06" style="stroke:#F0F0F0;stroke-width:9.72"/>
	<line x1="4326.24" y1="1794.66" x2="4326.24" y2="1729.86" style="stroke:#F0F0F0;stroke-width:9.72"/>
	<line x1="4326.24" y1="1697.46" x2="4326.24" y2="1632.66" style="stroke:#F0F0F0;stroke-width:9.72"/>
	<line x1="4326.24" y1="1600.26" x2="4326.24" y2="1535.46" style="stroke:#F0F0F0;stroke-width:9.72"/>
	<line x1="4326.24" y1="1503.06" x2="4326.24" y2="1438.26" style="stroke:#F0F0F0;stroke-width:9.72"/>
	<line x1="4326.24" y1="1405.86" x2="4326.24" y2="1341.06" style="stroke:#F0F0F0;stroke-width:9.72"/>
	<line x1="4326.24" y1="1308.66" x2="4326.24" y2="1243.86" style="stroke:#F0F0F0;stroke-width:9.72"/>
	<line x1="4326.24" y1="1211.46" x2="4326.24" y2="1146.66" style="stroke:#F0F0F0;stroke-width:9.72"/>
	<line x1="4326.24" y1="1114.26" x2="4326.24" y2="1049.46" style="stroke:#F0F0F0;stroke-width:9.72"/>
	<line x1="4326.24" y1="1017.06" x2="4326.24" y2="952.26" style="stroke:#F0F0F0;stroke-width:9.72"/>
	<line x1="4326.24" y1="919.86" x2="4326.24" y2="855.06" style="stroke:#F0F0F0;stroke-width:9.72"/>
	<line x1="4326.24" y1="822.66" x2="4326.24" y2="757.86" style="stroke:#F0F0F0;stroke-width:9.72"/>
	<line x1="4326.24" y1="725.46" x2="4326.24" y2="660.66" style="stroke:#F0F0F0;stroke-width:9.72"/>
	<line x1="4326.24" y1="628.26" x2="4326.24" y2="563.46" style="stroke:#F0F0F0;stroke-width:9.72"/>
	<line x1="4326.24" y1="531.06" x2="4326.24" y2="466.26" style="stroke:#F0F0F0;stroke-width:9.72"/>
	<line x1="4326.24" y1="433.86" x2="4326.24" y2="369.06" style="stroke:#F0F0F0;stroke-width:9.72"/>
	<line x1="4326.24" y1="336.66" x2="4326.24" y2="293.96" style="stroke:#F0F0F0;stroke-width:9.72"/>
	<defs>
		<path id="path_uTHKZUDX" d="M628.26 1877.85 L628.26 1877.85 L2477.25 1622.03 L4326.24 1838.03 L4326.24 549.45 L2477.25 824.01 L628.26 626.40 L628.26 1877.85 Z" stroke-linejoin="round"/>
	</defs>
	<defs>
		<clipPath id="clipPath_SAoINKqe">
			<use xlink:href="#path_uTHKZUDX"/>
		</clipPath>
	</defs>
	<use xlink:href="#path_uTHKZUDX" style="stroke:none;fill:#489DFF;fill-opacity:0.20"/>
	<use xlink:href="#path_uTHKZUDX" style="fill:none;stroke:#1A85FF;stroke-opacity:0.20;stroke-width:19.44" clip-path="url(#clipPath_SAoINKqe)"/>
	<defs>
		<path id="path_eZWxmjfJ" d="M628.26 2333.14 L628.26 2333.14 L2477.25 1954.80 L4326.24 1768.16 L4326.24 789.58 L2477.25 1371.26 L628.26 1694.59 L628.26 2333.14 Z" stroke-linejoin="round"/>
	</defs>
	<defs>
		<clipPath id="clipPath_WbozXEyZ">
			<use xlink:href="#path_eZWxmjfJ"/>
		</clipPath>
	</defs>
	<use xlink:href="#path_eZWxmjfJ" style="stroke:none;fill:#DD417A;fill-opacity:0.20"/>
	<use xlink:href="#path_eZWxmjfJ" style="fill:none;stroke:#D41159;stroke-opacity:0.20;stroke-width:19.44" clip-path="url(#clipPath_WbozXEyZ)"/>
	<path d=" M628.26 1252.13 L2477.08 1223.10 L4326.08 1193.91" stroke-linejoin="round" style="fill:none;stroke:#1A85FF;stroke-width:9.72"/>
	<circle cx="628.26" cy="1252.13" r="21.74" style="fill:#1A85FF"/>
	<circle cx="628.26" cy="1252.13" r="16.88" style="fill:none;stroke:#1A85FF;stroke-width:9.72"/>
	<circle cx="2477.08" cy="1223.10" r="21.74" style="fill:#1A85FF"/>
	<circle cx="2477.08" cy="1223.10" r="16.88" style="fill:none;stroke:#1A85FF;stroke-width:9.72"/>
	<circle cx="4326.08" cy="1193.91" r="21.74" style="fill:#1A85FF"/>
	<circle cx="4326.08" cy="1193.91" r="16.88" style="fill:none;stroke:#1A85FF;stroke-width:9.72"/>
	<path d=" M628.26 2013.86 L2477.08 1663.03 L4326.08 1278.96" stroke-linejoin="round" style="fill:none;stroke:#D41159;stroke-width:9.72"/>
	<circle cx="628.26" cy="2013.86" r="21.74" style="fill:#D41159"/>
	<circle cx="628.26" cy="2013.86" r="16.88" style="fill:none;stroke:#D41159;stroke-width:9.72"/>
	<circle cx="2477.08" cy="1663.03" r="21.74" style="fill:#D41159"/>
	<circle cx="2477.08" cy="1663.03" r="16.88" style="fill:none;stroke:#D41159;stroke-width:9.72"/>
	<circle cx="4326.08" cy="1278.96" r="21.74" style="fill:#D41159"/>
	<circle cx="4326.08" cy="1278.96" r="16.88" style="fill:none;stroke:#D41159;stroke-width:9.72"/>
	<line x1="557.04" y1="2766.66" x2="557.04" y2="293.96" style="stroke:#000000;stroke-width:6.48"/>
	<line x1="557.04" y1="2695.28" x2="511.99" y2="2695.28" style="stroke:#000000;stroke-width:6.48"/>
	<text x="489.54" y="2734.71" style="font-family:'Helvetica';font-size:112.56px;fill:#000000" text-anchor="end">.15</text>
	<line x1="557.04" y1="2112.75" x2="511.99" y2="2112.75" style="stroke:#000000;stroke-width:6.48"/>
	<text x="489.54" y="2152.19" style="font-family:'Helvetica';font-size:112.56px;fill:#000000" text-anchor="end">.2</text>
	<line x1="557.04" y1="1530.39" x2="511.99" y2="1530.39" style="stroke:#000000;stroke-width:6.48"/>
	<text x="489.54" y="1569.83" style="font-family:'Helvetica';font-size:112.56px;fill:#000000" text-anchor="end">.25</text>
	<line x1="557.04" y1="947.87" x2="511.99" y2="947.87" style="stroke:#000000;stroke-width:6.48"/>
	<text x="489.54" y="987.31" style="font-family:'Helvetica';font-size:112.56px;fill:#000000" text-anchor="end">.3</text>
	<line x1="557.04" y1="365.34" x2="511.99" y2="365.34" style="stroke:#000000;stroke-width:6.48"/>
	<text x="489.54" y="404.78" style="font-family:'Helvetica';font-size:112.56px;fill:#000000" text-anchor="end">.35</text>
	<text x="214.55" y="1530.39" style="font-family:'Helvetica';font-size:112.56px;fill:#000000" transform="rotate(-90 214.55,1530.39)" text-anchor="middle">Pr(union)</text>
	<line x1="557.04" y1="2766.66" x2="4397.46" y2="2766.66" style="stroke:#000000;stroke-width:6.48"/>
	<line x1="628.26" y1="2766.66" x2="628.26" y2="2811.54" style="stroke:#000000;stroke-width:6.48"/>
	<text x="628.26" y="2912.86" style="font-family:'Helvetica';font-size:112.56px;fill:#000000" text-anchor="middle">30</text>
	<line x1="2477.25" y1="2766.66" x2="2477.25" y2="2811.54" style="stroke:#000000;stroke-width:6.48"/>
	<text x="2477.25" y="2912.86" style="font-family:'Helvetica';font-size:112.56px;fill:#000000" text-anchor="middle">40</text>
	<line x1="4326.24" y1="2766.66" x2="4326.24" y2="2811.54" style="stroke:#000000;stroke-width:6.48"/>
	<text x="4326.24" y="2912.86" style="font-family:'Helvetica';font-size:112.56px;fill:#000000" text-anchor="middle">50</text>
	<text x="2477.25" y="3070.31" style="font-family:'Helvetica';font-size:112.56px;fill:#000000" text-anchor="middle">Usual hours worked</text>
	<rect x="4436.44" y="1346.79" width="811.35" height="367.20" style="fill:#FFFFFF"/>
	<rect x="4439.68" y="1350.03" width="804.87" height="360.72" style="fill:none;stroke:#FFFFFF;stroke-width:6.48"/>
	<line x1="4485.04" y1="1451.59" x2="4744.24" y2="1451.59" style="stroke:#1A85FF;stroke-width:9.72"/>
	<circle cx="4614.64" cy="1451.59" r="21.74" style="fill:#1A85FF"/>
	<circle cx="4614.64" cy="1451.59" r="16.88" style="fill:none;stroke:#1A85FF;stroke-width:9.72"/>
	<line x1="4485.04" y1="1609.03" x2="4744.24" y2="1609.03" style="stroke:#D41159;stroke-width:9.72"/>
	<circle cx="4614.64" cy="1609.03" r="21.74" style="fill:#D41159"/>
	<circle cx="4614.64" cy="1609.03" r="16.88" style="fill:none;stroke:#D41159;stroke-width:9.72"/>
	<text x="4811.74" y="1491.02" style="font-family:'Helvetica';font-size:112.56px;fill:#000000">Single</text>
	<text x="4811.74" y="1648.47" style="font-family:'Helvetica';font-size:112.56px;fill:#000000">Married</text>
	<text x="2700.00" y="231.95" style="font-family:'Helvetica';font-size:141.75px;fill:#000000" text-anchor="middle">Adjusted predictions of married with 95% CIs</text>
</svg>
